<svg width="24" height="20" viewBox="0 0 24 20" fill="none" xmlns="http://www.w3.org/2000/svg">
<g id="vuesax/bold/notification">
<g id="notification">
<path id="Vector" d="M19.3399 12.075L18.3399 10.6917C18.1299 10.3833 17.9399 9.79999 17.9399 9.45832V7.34999C17.9399 5.39166 16.5599 3.69999 14.5699 2.90832C14.0499 2.14166 13.0899 1.66666 11.9899 1.66666C10.8999 1.66666 9.91994 2.15832 9.39994 2.93332C7.44994 3.74166 6.09994 5.41666 6.09994 7.34999V9.45832C6.09994 9.79999 5.90994 10.3833 5.69994 10.6833L4.68994 12.075C4.28994 12.6333 4.19994 13.25 4.44994 13.8167C4.68994 14.375 5.25994 14.8083 5.99994 15.0167C7.93994 15.5667 9.97994 15.8333 12.0199 15.8333C14.0599 15.8333 16.0999 15.5667 18.0399 15.025C18.7399 14.8333 19.2799 14.3917 19.5399 13.8167C19.7999 13.2417 19.7299 12.6083 19.3399 12.075Z" fill="#0D101C"/>
<path id="Vector_2" d="M14.8299 16.675C14.4099 17.6417 13.2999 18.3333 11.9999 18.3333C11.2099 18.3333 10.4299 18.0667 9.87993 17.5917C9.55993 17.3417 9.31993 17.0083 9.17993 16.6667C9.30993 16.6833 9.43993 16.6917 9.57993 16.7083C9.80993 16.7333 10.0499 16.7583 10.2899 16.775C10.8599 16.8167 11.4399 16.8417 12.0199 16.8417C12.5899 16.8417 13.1599 16.8167 13.7199 16.775C13.9299 16.7583 14.1399 16.75 14.3399 16.725C14.4999 16.7083 14.6599 16.6917 14.8299 16.675Z" fill="#0D101C"/>
</g>
</g>
</svg>
