<svg width="12" height="12" viewBox="0 0 12 12" fill="none" xmlns="http://www.w3.org/2000/svg">
<g id="ph:x">
<path id="Vector" d="M9.64028 9.10969C9.67512 9.14453 9.70276 9.18589 9.72161 9.23142C9.74047 9.27694 9.75017 9.32573 9.75017 9.375C9.75017 9.42428 9.74047 9.47307 9.72161 9.51859C9.70276 9.56411 9.67512 9.60547 9.64028 9.64032C9.60544 9.67516 9.56407 9.70279 9.51855 9.72165C9.47303 9.74051 9.42424 9.75021 9.37496 9.75021C9.32569 9.75021 9.2769 9.74051 9.23138 9.72165C9.18586 9.70279 9.14449 9.67516 9.10965 9.64032L5.99996 6.53016L2.89028 9.64032C2.81991 9.71068 2.72448 9.75021 2.62496 9.75021C2.52545 9.75021 2.43002 9.71068 2.35965 9.64032C2.28929 9.56995 2.24976 9.47451 2.24976 9.375C2.24976 9.27549 2.28929 9.18006 2.35965 9.10969L5.46981 6L2.35965 2.89031C2.28929 2.81995 2.24976 2.72451 2.24976 2.625C2.24976 2.52549 2.28929 2.43006 2.35965 2.35969C2.43002 2.28932 2.52545 2.24979 2.62496 2.24979C2.72448 2.24979 2.81991 2.28932 2.89028 2.35969L5.99996 5.46985L9.10965 2.35969C9.18002 2.28932 9.27545 2.24979 9.37496 2.24979C9.47448 2.24979 9.56991 2.28932 9.64028 2.35969C9.71064 2.43006 9.75017 2.52549 9.75017 2.625C9.75017 2.72451 9.71064 2.81995 9.64028 2.89031L6.53012 6L9.64028 9.10969Z" fill="black"/>
</g>
</svg>
