<svg width="25" height="24" viewBox="0 0 25 24" fill="none" xmlns="http://www.w3.org/2000/svg">
<g id="vuesax/outline/setting-2">
<g id="setting-2">
<path id="Vector" d="M12.5 15.75C10.43 15.75 8.75 14.07 8.75 12C8.75 9.93 10.43 8.25 12.5 8.25C14.57 8.25 16.25 9.93 16.25 12C16.25 14.07 14.57 15.75 12.5 15.75ZM12.5 9.75C11.26 9.75 10.25 10.76 10.25 12C10.25 13.24 11.26 14.25 12.5 14.25C13.74 14.25 14.75 13.24 14.75 12C14.75 10.76 13.74 9.75 12.5 9.75Z" fill="#93989D"/>
<path id="Vector_2" d="M15.71 22.19C15.5 22.19 15.29 22.16 15.08 22.11C14.46 21.94 13.94 21.55 13.61 21L13.49 20.8C12.9 19.78 12.09 19.78 11.5 20.8L11.39 20.99C11.06 21.55 10.54 21.95 9.92 22.11C9.29 22.28 8.64 22.19 8.09 21.86L6.37 20.87C5.76 20.52 5.32 19.95 5.13 19.26C4.95 18.57 5.04 17.86 5.39 17.25C5.68 16.74 5.76 16.28 5.59 15.99C5.42 15.7 4.99 15.53 4.4 15.53C2.94 15.53 1.75 14.34 1.75 12.88V11.12C1.75 9.66001 2.94 8.47001 4.4 8.47001C4.99 8.47001 5.42 8.30001 5.59 8.01001C5.76 7.72001 5.69 7.26001 5.39 6.75001C5.04 6.14001 4.95 5.42001 5.13 4.74001C5.31 4.05001 5.75 3.48001 6.37 3.13001L8.1 2.14001C9.23 1.47001 10.72 1.86001 11.4 3.01001L11.52 3.21001C12.11 4.23001 12.92 4.23001 13.51 3.21001L13.62 3.02001C14.3 1.86001 15.79 1.47001 16.93 2.15001L18.65 3.14001C19.26 3.49001 19.7 4.06001 19.89 4.75001C20.07 5.44001 19.98 6.15001 19.63 6.76001C19.34 7.27001 19.26 7.73001 19.43 8.02001C19.6 8.31001 20.03 8.48001 20.62 8.48001C22.08 8.48001 23.27 9.67001 23.27 11.13V12.89C23.27 14.35 22.08 15.54 20.62 15.54C20.03 15.54 19.6 15.71 19.43 16C19.26 16.29 19.33 16.75 19.63 17.26C19.98 17.87 20.08 18.59 19.89 19.27C19.71 19.96 19.27 20.53 18.65 20.88L16.92 21.87C16.54 22.08 16.13 22.19 15.71 22.19ZM12.5 18.49C13.39 18.49 14.22 19.05 14.79 20.04L14.9 20.23C15.02 20.44 15.22 20.59 15.46 20.65C15.7 20.71 15.94 20.68 16.14 20.56L17.87 19.56C18.13 19.41 18.33 19.16 18.41 18.86C18.49 18.56 18.45 18.25 18.3 17.99C17.73 17.01 17.66 16 18.1 15.23C18.54 14.46 19.45 14.02 20.59 14.02C21.23 14.02 21.74 13.51 21.74 12.87V11.11C21.74 10.48 21.23 9.96001 20.59 9.96001C19.45 9.96001 18.54 9.52001 18.1 8.75001C17.66 7.98001 17.73 6.97001 18.3 5.99001C18.45 5.73001 18.49 5.42001 18.41 5.12001C18.33 4.82001 18.14 4.58001 17.88 4.42001L16.15 3.43001C15.72 3.17001 15.15 3.32001 14.89 3.76001L14.78 3.95001C14.21 4.94001 13.38 5.50001 12.49 5.50001C11.6 5.50001 10.77 4.94001 10.2 3.95001L10.09 3.75001C9.84 3.33001 9.28 3.18001 8.85 3.43001L7.12 4.43001C6.86 4.58001 6.66 4.83001 6.58 5.13001C6.5 5.43001 6.54 5.74001 6.69 6.00001C7.26 6.98001 7.33 7.99001 6.89 8.76001C6.45 9.53001 5.54 9.97001 4.4 9.97001C3.76 9.97001 3.25 10.48 3.25 11.12V12.88C3.25 13.51 3.76 14.03 4.4 14.03C5.54 14.03 6.45 14.47 6.89 15.24C7.33 16.01 7.26 17.02 6.69 18C6.54 18.26 6.5 18.57 6.58 18.87C6.66 19.17 6.85 19.41 7.11 19.57L8.84 20.56C9.05 20.69 9.3 20.72 9.53 20.66C9.77 20.6 9.97 20.44 10.1 20.23L10.21 20.04C10.78 19.06 11.61 18.49 12.5 18.49Z" fill="#93989D"/>
</g>
</g>
</svg>
